<svg xmlns="http://www.w3.org/2000/svg" viewBox="0 0 36.69 40.52"><defs><style>.cls-1{fill:#ffffff;}</style></defs><g id="Layer_2" data-name="Layer 2"><g id="Layer_1-2" data-name="Layer 1"><path class="cls-1" d="M8.65,0V10.29H22.5V25a2.61,2.61,0,0,1,0,.28v.06a11.9,11.9,0,0,1-.4,3.07,6.7,6.7,0,0,1-4.25,4.06,5.74,5.74,0,0,1-1.72-1.31c-1.3-1.44-1.93-3.46-1.93-6.16V24H0v1a17.81,17.81,0,0,0,1.82,8.35,1.51,1.51,0,0,0,.15.28l.05.09A14.08,14.08,0,0,0,8,39.13l.11,0a1.59,1.59,0,0,0,.27.12,13.93,13.93,0,0,0,5.72,1.22h7.32a16.6,16.6,0,0,0,9-2.28,2.75,2.75,0,0,0,.33-.23,13.9,13.9,0,0,0,2.85-2.62l.25-.32,0,0a3.3,3.3,0,0,0,.22-.3A16.75,16.75,0,0,0,36.69,25V0Zm7.14,32.79a6.72,6.72,0,0,1-6.71-6.7V25h4.11a9.87,9.87,0,0,0,2.18,6.83,6.6,6.6,0,0,0,1,.94C16.21,32.78,16,32.79,15.79,32.79ZM34.69,25a14.84,14.84,0,0,1-2.31,8.61l0,0v0a.36.36,0,0,1-.07.1l0,0v0l-.06.08c-.07.09-.14.17-.21.27a12.17,12.17,0,0,1-2.5,2.28l-.14.1h-.05a12.9,12.9,0,0,1-5.2,1.81,12.56,12.56,0,0,0,2.44-1.93c2.7-2.72,4.07-6.56,4.07-11.42V8.29H16.74V2h18Z"/></g></g></svg>